HIERARCHY
ROOT Hips
{
  OFFSET 0.000000 95.000000 0.000000
  CHANNELS 6 Xposition Yposition Zposition Zrotation Xrotation Yrotation
  JOINT Spine
  {
    OFFSET 0.000000 10.000000 0.000000
    CHANNELS 3 Zrotation Xrotation Yrotation
    JOINT Spine1
    {
      OFFSET 0.000000 12.000000 0.000000
      CHANNELS 3 Zrotation Xrotation Yrotation
      JOINT Spine2
      {
        OFFSET 0.000000 12.000000 0.000000
        CHANNELS 3 Zrotation Xrotation Yrotation
        JOINT Neck
        {
          OFFSET 0.000000 10.000000 0.000000
          CHANNELS 3 Zrotation Xrotation Yrotation
          JOINT Head
          {
            OFFSET 0.000000 8.000000 0.000000
            CHANNELS 3 Zrotation Xrotation Yrotation
            End Site
            {
              OFFSET 0.000000 10.000000 0.000000
            }
          }
        }
        JOINT LeftShoulder
        {
          OFFSET 6.000000 8.000000 0.000000
          CHANNELS 3 Zrotation Xrotation Yrotation
          JOINT LeftArm
          {
            OFFSET 12.000000 0.000000 0.000000
            CHANNELS 3 Zrotation Xrotation Yrotation
            JOINT LeftForeArm
            {
              OFFSET 24.000000 0.000000 0.000000
              CHANNELS 3 Zrotation Xrotation Yrotation
              JOINT LeftHand
              {
                OFFSET 22.000000 0.000000 0.000000
                CHANNELS 3 Zrotation Xrotation Yrotation
                JOINT LeftHandThumb1
                {
                  OFFSET 1.800000 -1.400000 0.500000
                  CHANNELS 3 Zrotation Xrotation Yrotation
                  JOINT LeftHandThumb2
                  {
                    OFFSET 2.400000 0.000000 0.000000
                    CHANNELS 3 Zrotation Xrotation Yrotation
                    JOINT LeftHandThumb3
                    {
                      OFFSET 1.900000 0.000000 0.000000
                      CHANNELS 3 Zrotation Xrotation Yrotation
                      End Site
                      {
                        OFFSET 1.600000 0.000000 0.000000
                      }
                    }
                  }
                }
                JOINT LeftHandIndex1
                {
                  OFFSET 6.600000 1.200000 0.300000
                  CHANNELS 3 Zrotation Xrotation Yrotation
                  JOINT LeftHandIndex2
                  {
                    OFFSET 2.000000 0.000000 0.000000
                    CHANNELS 3 Zrotation Xrotation Yrotation
                    JOINT LeftHandIndex3
                    {
                      OFFSET 1.200000 0.000000 0.000000
                      CHANNELS 3 Zrotation Xrotation Yrotation
                      End Site
                      {
                        OFFSET 1.000000 0.000000 0.000000
                      }
                    }
                  }
                }
                JOINT LeftHandMiddle1
                {
                  OFFSET 7.200000 0.000000 0.300000
                  CHANNELS 3 Zrotation Xrotation Yrotation
                  JOINT LeftHandMiddle2
                  {
                    OFFSET 3.000000 0.000000 0.000000
                    CHANNELS 3 Zrotation Xrotation Yrotation
                    JOINT LeftHandMiddle3
                    {
                      OFFSET 2.000000 0.000000 0.000000
                      CHANNELS 3 Zrotation Xrotation Yrotation
                      End Site
                      {
                        OFFSET 1.600000 0.000000 0.000000
                      }
                    }
                  }
                }
                JOINT LeftHandRing1
                {
                  OFFSET 7.100000 -1.000000 0.400000
                  CHANNELS 3 Zrotation Xrotation Yrotation
                  JOINT LeftHandRing2
                  {
                    OFFSET 2.600000 0.000000 0.000000
                    CHANNELS 3 Zrotation Xrotation Yrotation
                    JOINT LeftHandRing3
                    {
                      OFFSET 1.600000 0.000000 0.000000
                      CHANNELS 3 Zrotation Xrotation Yrotation
                      End Site
                      {
                        OFFSET 1.300000 0.000000 0.000000
                      }
                    }
                  }
                }
                JOINT LeftHandPinky1
                {
                  OFFSET 6.500000 -2.000000 0.500000
                  CHANNELS 3 Zrotation Xrotation Yrotation
                  JOINT LeftHandPinky2
                  {
                    OFFSET 1.900000 0.000000 0.000000
                    CHANNELS 3 Zrotation Xrotation Yrotation
                    JOINT LeftHandPinky3
                    {
                      OFFSET 1.400000 0.000000 0.000000
                      CHANNELS 3 Zrotation Xrotation Yrotation
                      End Site
                      {
                        OFFSET 1.300000 0.000000 0.000000
                      }
                    }
                  }
                }
              }
            }
          }
        }
        JOINT RightShoulder
        {
          OFFSET -6.000000 8.000000 0.000000
          CHANNELS 3 Zrotation Xrotation Yrotation
          JOINT RightArm
          {
            OFFSET -12.000000 0.000000 0.000000
            CHANNELS 3 Zrotation Xrotation Yrotation
            JOINT RightForeArm
            {
              OFFSET -24.000000 0.000000 0.000000
              CHANNELS 3 Zrotation Xrotation Yrotation
              JOINT RightHand
              {
                OFFSET -22.000000 0.000000 0.000000
                CHANNELS 3 Zrotation Xrotation Yrotation
                JOINT RightHandThumb1
                {
                  OFFSET -1.800000 -1.400000 0.500000
                  CHANNELS 3 Zrotation Xrotation Yrotation
                  JOINT RightHandThumb2
                  {
                    OFFSET -2.400000 0.000000 0.000000
                    CHANNELS 3 Zrotation Xrotation Yrotation
                    JOINT RightHandThumb3
                    {
                      OFFSET -1.900000 0.000000 0.000000
                      CHANNELS 3 Zrotation Xrotation Yrotation
                      End Site
                      {
                        OFFSET -1.600000 0.000000 0.000000
                      }
                    }
                  }
                }
                JOINT RightHandIndex1
                {
                  OFFSET -6.600000 1.200000 0.300000
                  CHANNELS 3 Zrotation Xrotation Yrotation
                  JOINT RightHandIndex2
                  {
                    OFFSET -2.000000 0.000000 0.000000
                    CHANNELS 3 Zrotation Xrotation Yrotation
                    JOINT RightHandIndex3
                    {
                      OFFSET -1.200000 0.000000 0.000000
                      CHANNELS 3 Zrotation Xrotation Yrotation
                      End Site
                      {
                        OFFSET -1.000000 0.000000 0.000000
                      }
                    }
                  }
                }
                JOINT RightHandMiddle1
                {
                  OFFSET -7.200000 0.000000 0.300000
                  CHANNELS 3 Zrotation Xrotation Yrotation
                  JOINT RightHandMiddle2
                  {
                    OFFSET -3.000000 0.000000 0.000000
                    CHANNELS 3 Zrotation Xrotation Yrotation
                    JOINT RightHandMiddle3
                    {
                      OFFSET -2.000000 0.000000 0.000000
                      CHANNELS 3 Zrotation Xrotation Yrotation
                      End Site
                      {
                        OFFSET -1.600000 0.000000 0.000000
                      }
                    }
                  }
                }
                JOINT RightHandRing1
                {
                  OFFSET -7.100000 -1.000000 0.400000
                  CHANNELS 3 Zrotation Xrotation Yrotation
                  JOINT RightHandRing2
                  {
                    OFFSET -2.600000 0.000000 0.000000
                    CHANNELS 3 Zrotation Xrotation Yrotation
                    JOINT RightHandRing3
                    {
                      OFFSET -1.600000 0.000000 0.000000
                      CHANNELS 3 Zrotation Xrotation Yrotation
                      End Site
                      {
                        OFFSET -1.300000 0.000000 0.000000
                      }
                    }
                  }
                }
                JOINT RightHandPinky1
                {
                  OFFSET -6.500000 -2.000000 0.500000
                  CHANNELS 3 Zrotation Xrotation Yrotation
                  JOINT RightHandPinky2
                  {
                    OFFSET -1.900000 0.000000 0.000000
                    CHANNELS 3 Zrotation Xrotation Yrotation
                    JOINT RightHandPinky3
                    {
                      OFFSET -1.400000 0.000000 0.000000
                      CHANNELS 3 Zrotation Xrotation Yrotation
                      End Site
                      {
                        OFFSET -1.300000 0.000000 0.000000
                      }
                    }
                  }
                }
              }
            }
          }
        }
      }
    }
  }
  JOINT LeftUpLeg
  {
    OFFSET 10.000000 -5.000000 0.000000
    CHANNELS 3 Zrotation Xrotation Yrotation
    JOINT LeftLeg
    {
      OFFSET 0.000000 -42.000000 0.000000
      CHANNELS 3 Zrotation Xrotation Yrotation
      JOINT LeftFoot
      {
        OFFSET 0.000000 -42.000000 4.000000
        CHANNELS 3 Zrotation Xrotation Yrotation
        End Site
        {
          OFFSET 0.000000 0.000000 12.000000
        }
      }
    }
  }
  JOINT RightUpLeg
  {
    OFFSET -10.000000 -5.000000 0.000000
    CHANNELS 3 Zrotation Xrotation Yrotation
    JOINT RightLeg
    {
      OFFSET 0.000000 -42.000000 0.000000
      CHANNELS 3 Zrotation Xrotation Yrotation
      JOINT RightFoot
      {
        OFFSET 0.000000 -42.000000 4.000000
        CHANNELS 3 Zrotation Xrotation Yrotation
        End Site
        {
          OFFSET 0.000000 0.000000 12.000000
        }
      }
    }
  }
}
MOTION
Frames: 7
Frame Time: 0.033333
0.0000 95.0000 0.0000 0.0000 0.0000 0.0000 0.0000 0.0000 0.0000 0.0000 0.0000 0.0000 0.0000 0.0000 0.0000 0.0000 0.0000 0.0000 0.0000 0.0000 0.0000 0.0000 0.0000 0.0000 -74.2823 3.3409 4.4100 4.4217 6.0842 -7.7655 -23.3736 -8.5868 1.7751 61.4756 -13.1083 -2.1610 16.1725 0.0000 0.0000 8.7056 0.0000 0.0000 7.4921 6.9242 -28.7853 110.0000 0.0000 0.0000 8.9426 0.0000 0.0000 23.9920 6.3909 -34.2147 110.0000 0.0000 0.0000 8.1380 0.0000 0.0000 29.5517 1.2825 -24.4257 110.0000 0.0000 0.0000 5.6953 0.0000 0.0000 27.6459 -2.8289 -14.5633 110.0000 0.0000 0.0000 6.4679 0.0000 0.0000 0.0000 0.0000 0.0000 86.3285 -27.8847 29.6524 -157.8086 48.8805 -72.8242 596.2538 -45.5183 96.3565 -58.7796 -10.8024 -12.4195 3.3268 0.0000 0.0000 17.6959 0.0000 0.0000 4.8091 0.0620 -1.1175 6.0611 0.0000 0.0000 10.1480 0.0000 0.0000 5.0144 -0.0139 5.0889 0.9512 0.0000 0.0000 1.1435 0.0000 0.0000 -2.7084 -0.6321 4.1180 92.9781 0.0000 0.0000 70.3573 0.0000 0.0000 -17.2919 -2.1286 5.7545 35.2104 0.0000 0.0000 76.3543 0.0000 0.0000 0.0000 0.0000 0.0000 0.0000 0.0000 0.0000 0.0000 0.0000 0.0000 0.0000 0.0000 0.0000 0.0000 0.0000 0.0000 0.0000 0.0000 0.0000
0.0000 95.0000 0.0000 0.0000 0.0000 0.0000 0.0000 0.0000 0.0000 0.0000 0.0000 0.0000 0.0000 0.0000 0.0000 0.0000 0.0000 0.0000 0.0000 0.0000 0.0000 0.0000 0.0000 0.0000 -73.2123 8.7451 11.7542 -0.8456 13.1227 -17.8425 -20.1069 -10.4050 3.8416 61.4756 -13.1083 -2.1610 16.1725 0.0000 0.0000 8.7056 0.0000 0.0000 7.4921 6.9242 -28.7853 110.0000 0.0000 0.0000 8.9426 0.0000 0.0000 23.9920 6.3909 -34.2147 110.0000 0.0000 0.0000 8.1380 0.0000 0.0000 29.5517 1.2825 -24.4257 110.0000 0.0000 0.0000 5.6953 0.0000 0.0000 27.6459 -2.8289 -14.5633 110.0000 0.0000 0.0000 6.4679 0.0000 0.0000 0.0000 0.0000 0.0000 84.3550 -31.0211 34.0604 -142.0091 40.1583 -62.1344 590.3456 -39.6884 104.7245 -61.3109 -11.6897 -11.0005 2.0255 0.0000 0.0000 42.3960 0.0000 0.0000 -5.6850 -1.5140 -5.3471 4.6846 0.0000 0.0000 5.7214 0.0000 0.0000 1.5689 0.0315 2.4681 1.6286 0.0000 0.0000 2.5829 0.0000 0.0000 -1.6619 -0.2013 0.8562 8.7833 0.0000 0.0000 6.4860 0.0000 0.0000 -14.4034 -0.9193 -0.8783 34.5984 0.0000 0.0000 67.5493 0.0000 0.0000 0.0000 0.0000 0.0000 0.0000 0.0000 0.0000 0.0000 0.0000 0.0000 0.0000 0.0000 0.0000 0.0000 0.0000 0.0000 0.0000 0.0000 0.0000
0.0000 95.0000 0.0000 0.0000 0.0000 0.0000 0.0000 0.0000 0.0000 0.0000 0.0000 0.0000 0.0000 0.0000 0.0000 0.0000 0.0000 0.0000 0.0000 0.0000 0.0000 0.0000 0.0000 0.0000 -72.1030 11.5540 15.8254 -3.8203 15.8720 -22.3712 -18.6302 -10.5917 3.8522 61.4756 -13.1083 -2.1610 16.1725 0.0000 0.0000 8.7056 0.0000 0.0000 7.4921 6.9242 -28.7853 110.0000 0.0000 0.0000 8.9426 0.0000 0.0000 23.9920 6.3909 -34.2147 110.0000 0.0000 0.0000 8.1380 0.0000 0.0000 29.5517 1.2825 -24.4257 110.0000 0.0000 0.0000 5.6953 0.0000 0.0000 27.6459 -2.8289 -14.5633 110.0000 0.0000 0.0000 6.4679 0.0000 0.0000 0.0000 0.0000 0.0000 82.8460 -33.0663 37.1890 -138.7814 34.8719 -61.1747 598.0380 -40.6875 102.2580 -60.3150 -10.8450 -15.7546 3.3481 0.0000 0.0000 36.6323 0.0000 0.0000 2.0596 -1.3475 -8.7773 17.6230 0.0000 0.0000 12.3307 0.0000 0.0000 2.0139 0.0875 -0.2026 3.2315 0.0000 0.0000 0.3544 0.0000 0.0000 -5.4084 -0.1349 -1.8083 5.9072 0.0000 0.0000 3.0126 0.0000 0.0000 -18.7257 -0.8463 -3.9643 7.7565 0.0000 0.0000 6.0474 0.0000 0.0000 0.0000 0.0000 0.0000 0.0000 0.0000 0.0000 0.0000 0.0000 0.0000 0.0000 0.0000 0.0000 0.0000 0.0000 0.0000 0.0000 0.0000 0.0000
0.0000 95.0000 0.0000 0.0000 0.0000 0.0000 0.0000 0.0000 0.0000 0.0000 0.0000 0.0000 0.0000 0.0000 0.0000 0.0000 0.0000 0.0000 0.0000 0.0000 0.0000 0.0000 0.0000 0.0000 -74.5685 4.5782 6.0109 -1.0999 9.2230 -12.2720 -18.0795 -10.6431 3.8309 61.4756 -13.1083 -2.1610 16.1725 0.0000 0.0000 8.7056 0.0000 0.0000 7.4921 6.9242 -28.7853 110.0000 0.0000 0.0000 8.9426 0.0000 0.0000 23.9920 6.3909 -34.2147 110.0000 0.0000 0.0000 8.1380 0.0000 0.0000 29.5517 1.2825 -24.4257 110.0000 0.0000 0.0000 5.6953 0.0000 0.0000 27.6459 -2.8289 -14.5633 110.0000 0.0000 0.0000 6.4679 0.0000 0.0000 0.0000 0.0000 0.0000 81.2831 -34.0307 39.2444 -138.3004 33.3794 -61.8307 596.8575 -37.9408 106.9002 -59.2316 -10.9046 -12.6427 2.6354 0.0000 0.0000 38.0869 0.0000 0.0000 0.1721 -1.3727 -7.6242 5.4713 0.0000 0.0000 8.0801 0.0000 0.0000 10.3727 0.3075 1.3846 4.2868 0.0000 0.0000 3.8444 0.0000 0.0000 -0.6655 0.2002 -1.7599 3.6290 0.0000 0.0000 3.3769 0.0000 0.0000 -13.4558 -0.5410 -2.5305 2.0990 0.0000 0.0000 3.9817 0.0000 0.0000 0.0000 0.0000 0.0000 0.0000 0.0000 0.0000 0.0000 0.0000 0.0000 0.0000 0.0000 0.0000 0.0000 0.0000 0.0000 0.0000 0.0000 0.0000
0.0000 95.0000 0.0000 0.0000 0.0000 0.0000 0.0000 0.0000 0.0000 0.0000 0.0000 0.0000 0.0000 0.0000 0.0000 0.0000 0.0000 0.0000 0.0000 0.0000 0.0000 0.0000 0.0000 0.0000 -74.5082 4.6102 6.0594 -0.9379 9.2554 -12.3100 -18.3068 -10.6351 3.8570 61.4756 -13.1083 -2.1610 16.1725 0.0000 0.0000 8.7056 0.0000 0.0000 7.4921 6.9242 -28.7853 110.0000 0.0000 0.0000 8.9426 0.0000 0.0000 23.9920 6.3909 -34.2147 110.0000 0.0000 0.0000 8.1380 0.0000 0.0000 29.5517 1.2825 -24.4257 110.0000 0.0000 0.0000 5.6953 0.0000 0.0000 27.6459 -2.8289 -14.5633 110.0000 0.0000 0.0000 6.4679 0.0000 0.0000 0.0000 0.0000 0.0000 81.3913 -34.8305 40.0774 -137.3409 30.4229 -61.5547 590.2369 -40.5457 112.1649 -63.6426 -12.1832 -12.6504 3.3433 0.0000 0.0000 40.6764 0.0000 0.0000 0.5147 -0.9280 -5.3545 14.9533 0.0000 0.0000 64.0842 0.0000 0.0000 7.1976 0.1355 2.6182 3.1297 0.0000 0.0000 4.1399 0.0000 0.0000 -3.3947 -0.2854 0.8576 2.9461 0.0000 0.0000 2.4297 0.0000 0.0000 -17.9318 -1.3071 -0.1350 13.0907 0.0000 0.0000 17.4511 0.0000 0.0000 0.0000 0.0000 0.0000 0.0000 0.0000 0.0000 0.0000 0.0000 0.0000 0.0000 0.0000 0.0000 0.0000 0.0000 0.0000 0.0000 0.0000 0.0000
0.0000 95.0000 0.0000 0.0000 0.0000 0.0000 0.0000 0.0000 0.0000 0.0000 0.0000 0.0000 0.0000 0.0000 0.0000 0.0000 0.0000 0.0000 0.0000 0.0000 0.0000 0.0000 0.0000 0.0000 -75.1988 4.7307 6.1406 0.4457 9.5456 -12.3835 -19.0354 -10.6817 4.0379 61.4756 -13.1083 -2.1610 16.1725 0.0000 0.0000 8.7056 0.0000 0.0000 7.4921 6.9242 -28.7853 110.0000 0.0000 0.0000 8.9426 0.0000 0.0000 23.9920 6.3909 -34.2147 110.0000 0.0000 0.0000 8.1380 0.0000 0.0000 29.5517 1.2825 -24.4257 110.0000 0.0000 0.0000 5.6953 0.0000 0.0000 27.6459 -2.8289 -14.5633 110.0000 0.0000 0.0000 6.4679 0.0000 0.0000 0.0000 0.0000 0.0000 82.0552 -35.3125 40.1856 -136.3477 28.5288 -61.0889 586.6399 -41.2533 114.3542 -63.0691 -12.2010 -10.6783 3.1174 0.0000 0.0000 48.9313 0.0000 0.0000 -6.8250 -2.6632 -9.5618 5.6600 0.0000 0.0000 11.4059 0.0000 0.0000 5.2124 0.1335 1.8401 1.2093 0.0000 0.0000 4.2965 0.0000 0.0000 -2.8397 -0.2767 1.0153 0.7267 0.0000 0.0000 4.7361 0.0000 0.0000 -15.4478 -1.5193 2.2641 9.7091 0.0000 0.0000 5.7282 0.0000 0.0000 0.0000 0.0000 0.0000 0.0000 0.0000 0.0000 0.0000 0.0000 0.0000 0.0000 0.0000 0.0000 0.0000 0.0000 0.0000 0.0000 0.0000 0.0000
0.0000 95.0000 0.0000 0.0000 0.0000 0.0000 0.0000 0.0000 0.0000 0.0000 0.0000 0.0000 0.0000 0.0000 0.0000 0.0000 0.0000 0.0000 0.0000 0.0000 0.0000 0.0000 0.0000 0.0000 -75.2220 4.7622 6.1789 0.6333 9.5680 -12.3867 -19.1992 -10.6591 4.0349 61.4756 -13.1083 -2.1610 16.1725 0.0000 0.0000 8.7056 0.0000 0.0000 7.4921 6.9242 -28.7853 110.0000 0.0000 0.0000 8.9426 0.0000 0.0000 23.9920 6.3909 -34.2147 110.0000 0.0000 0.0000 8.1380 0.0000 0.0000 29.5517 1.2825 -24.4257 110.0000 0.0000 0.0000 5.6953 0.0000 0.0000 27.6459 -2.8289 -14.5633 110.0000 0.0000 0.0000 6.4679 0.0000 0.0000 0.0000 0.0000 0.0000 81.5745 -35.4240 40.6252 -136.3799 29.6995 -61.6223 588.0202 -38.4311 115.6350 -61.3035 -11.8757 -9.2697 3.1114 0.0000 0.0000 44.3822 0.0000 0.0000 0.2869 -1.0123 -5.7036 13.4579 0.0000 0.0000 27.3235 0.0000 0.0000 12.3839 0.2284 2.6670 3.4806 0.0000 0.0000 3.6166 0.0000 0.0000 1.9234 -0.0128 0.7683 9.4770 0.0000 0.0000 6.2178 0.0000 0.0000 -15.1036 -1.3369 1.2794 9.6959 0.0000 0.0000 4.0210 0.0000 0.0000 0.0000 0.0000 0.0000 0.0000 0.0000 0.0000 0.0000 0.0000 0.0000 0.0000 0.0000 0.0000 0.0000 0.0000 0.0000 0.0000 0.0000 0.0000
